<svg width="40" height="40" viewBox="0 0 40 40" fill="none" xmlns="http://www.w3.org/2000/svg">
<path d="M28.332 5.5667C30.8458 7.01812 32.9369 9.10091 34.3984 11.6089C35.8599 14.1168 36.641 16.963 36.6644 19.8656C36.6879 22.7682 35.9528 25.6266 34.5321 28.1579C33.1113 30.6891 31.0541 32.8054 28.5641 34.2972C26.0741 35.7891 23.2376 36.6047 20.3355 36.6635C17.4334 36.7222 14.5663 36.022 12.018 34.6321C9.46963 33.2422 7.32848 31.2109 5.80648 28.7392C4.28447 26.2675 3.43438 23.4412 3.34036 20.54L3.33203 20L3.34036 19.46C3.4337 16.5817 4.27128 13.7766 5.77143 11.3184C7.27158 8.86007 9.38312 6.83245 11.9002 5.43317C14.4172 4.03388 17.2539 3.31069 20.1337 3.33409C23.0135 3.35749 25.838 4.12669 28.332 5.5667ZM26.177 15.4884C25.89 15.2014 25.5082 15.029 25.1032 15.0035C24.6981 14.9781 24.2977 15.1013 23.977 15.35L23.8204 15.4884L18.332 20.975L16.177 18.8217L16.0204 18.6834C15.6997 18.4348 15.2993 18.3117 14.8944 18.3373C14.4894 18.3628 14.1077 18.5352 13.8208 18.8221C13.5339 19.109 13.3615 19.4908 13.336 19.8957C13.3104 20.3006 13.4335 20.701 13.682 21.0217L13.8204 21.1784L17.1537 24.5117L17.3104 24.65C17.6027 24.8768 17.9621 24.9999 18.332 24.9999C18.702 24.9999 19.0614 24.8768 19.3537 24.65L19.5104 24.5117L26.177 17.845L26.3154 17.6884C26.5641 17.3677 26.6873 16.9673 26.6618 16.5622C26.6364 16.1572 26.464 15.7754 26.177 15.4884Z" fill="#059905"/>
</svg>
