<svg width="32" height="32" viewBox="0 0 32 32" fill="none" xmlns="http://www.w3.org/2000/svg">
<g clip-path="url(#clip0_27730_2154)">
<path d="M19.0625 16C19.0625 17.6914 17.6914 19.0625 16 19.0625C14.3086 19.0625 12.9375 17.6914 12.9375 16C12.9375 14.3086 14.3086 12.9375 16 12.9375C17.6914 12.9375 19.0625 14.3086 19.0625 16Z" fill="#142D59"/>
<path d="M23.1612 10.5818C23.014 10.1829 22.7792 9.82178 22.474 9.52539C22.1776 9.22021 21.8168 8.98535 21.4176 8.83813C21.0939 8.7124 20.6075 8.56274 19.7118 8.52197C18.7428 8.47778 18.4523 8.46826 15.9991 8.46826C13.5458 8.46826 13.2552 8.47754 12.2865 8.52173C11.3907 8.56274 10.9042 8.7124 10.5807 8.83813C10.1815 8.98535 9.82043 9.22021 9.52428 9.52539C9.21911 9.82178 8.98425 10.1826 8.83678 10.5818C8.71105 10.9055 8.56139 11.3921 8.52062 12.2878C8.47643 13.2566 8.46691 13.5471 8.46691 16.0005C8.46691 18.4536 8.47643 18.7441 8.52062 19.7131C8.56139 20.6089 8.71105 21.0952 8.83678 21.4189C8.98425 21.8181 9.21886 22.179 9.52404 22.4753C9.82043 22.7805 10.1813 23.0154 10.5804 23.1626C10.9042 23.2886 11.3907 23.4382 12.2865 23.479C13.2552 23.5232 13.5455 23.5325 15.9989 23.5325C18.4525 23.5325 18.743 23.5232 19.7115 23.479C20.6073 23.4382 21.0939 23.2886 21.4176 23.1626C22.2189 22.8535 22.8522 22.2202 23.1612 21.4189C23.287 21.0952 23.4366 20.6089 23.4777 19.7131C23.5218 18.7441 23.5311 18.4536 23.5311 16.0005C23.5311 13.5471 23.5218 13.2566 23.4777 12.2878C23.4369 11.3921 23.2872 10.9055 23.1612 10.5818ZM15.9991 20.718C13.3934 20.718 11.2811 18.606 11.2811 16.0002C11.2811 13.3945 13.3934 11.2825 15.9991 11.2825C18.6046 11.2825 20.7169 13.3945 20.7169 16.0002C20.7169 18.606 18.6046 20.718 15.9991 20.718ZM20.9034 12.1985C20.2945 12.1985 19.8009 11.7048 19.8009 11.0959C19.8009 10.4871 20.2945 9.99341 20.9034 9.99341C21.5123 9.99341 22.006 10.4871 22.006 11.0959C22.0057 11.7048 21.5123 12.1985 20.9034 12.1985Z" fill="#142D59"/>
<path d="M16 0C7.16479 0 0 7.16479 0 16C0 24.8352 7.16479 32 16 32C24.8352 32 32 24.8352 32 16C32 7.16479 24.8352 0 16 0ZM25.1321 19.7878C25.0876 20.7659 24.9321 21.4336 24.7051 22.0181C24.2278 23.2522 23.2522 24.2278 22.0181 24.7051C21.4338 24.9321 20.7659 25.0874 19.7881 25.1321C18.8083 25.1768 18.4954 25.1875 16.0002 25.1875C13.5049 25.1875 13.1921 25.1768 12.2122 25.1321C11.2344 25.0874 10.5664 24.9321 9.98218 24.7051C9.3689 24.4744 8.81372 24.1128 8.35474 23.6453C7.88745 23.1865 7.52588 22.6311 7.29517 22.0181C7.06812 21.4338 6.9126 20.7659 6.86816 19.7881C6.823 18.8081 6.8125 18.4951 6.8125 16C6.8125 13.5049 6.823 13.1919 6.86792 12.2122C6.91235 11.2341 7.06763 10.5664 7.29468 9.98193C7.52539 9.3689 7.88721 8.81348 8.35474 8.35474C8.81348 7.88721 9.3689 7.52563 9.98193 7.29492C10.5664 7.06787 11.2341 6.9126 12.2122 6.86792C13.1919 6.82324 13.5049 6.8125 16 6.8125C18.4951 6.8125 18.8081 6.82324 19.7878 6.86816C20.7659 6.9126 21.4336 7.06787 22.0181 7.29468C22.6311 7.52539 23.1865 7.88721 23.6455 8.35474C24.1128 8.81372 24.4746 9.3689 24.7051 9.98193C24.9324 10.5664 25.0876 11.2341 25.1323 12.2122C25.177 13.1919 25.1875 13.5049 25.1875 16C25.1875 18.4951 25.177 18.8081 25.1321 19.7878Z" fill="#142D59"/>
</g>
<defs>
<clipPath id="clip0_27730_2154">
<rect width="32" height="32" fill="white"/>
</clipPath>
</defs>
</svg>
