<svg width="24" height="24" viewBox="0 0 24 24" fill="none" xmlns="http://www.w3.org/2000/svg">
<path d="M12 3C14.444 3 14.7514 3.01035 15.707 3.05371C16.4534 3.06918 17.1923 3.21041 17.8916 3.47168C18.4903 3.70244 19.0342 4.05639 19.4883 4.50977C19.9424 4.96318 20.2966 5.50704 20.5283 6.10547C20.7895 6.80483 20.9309 7.54364 20.9463 8.29004C20.9896 9.24945 21 9.55653 21 12C21 14.444 20.9897 14.7514 20.9463 15.707C20.9308 16.4534 20.7896 17.1923 20.5283 17.8916C20.2976 18.4903 19.9436 19.0342 19.4902 19.4883C19.0369 19.9423 18.4938 20.2967 17.8955 20.5283C17.1961 20.7896 16.4574 20.9308 15.7109 20.9463C14.7512 20.9897 14.444 21 12 21C9.55638 21 9.24941 20.9896 8.29395 20.9463C7.54749 20.9309 6.80878 20.7896 6.10938 20.5283C5.51057 20.2976 4.96682 19.9436 4.5127 19.4902C4.05857 19.0368 3.70337 18.494 3.47168 17.8955C3.21039 17.1961 3.06917 16.4574 3.05371 15.7109C3.01035 14.7512 3 14.444 3 12C3 9.55639 3.01036 9.2494 3.05371 8.29395C3.06914 7.54753 3.21044 6.80875 3.47168 6.10938C3.7024 5.51064 4.05644 4.96679 4.50977 4.5127C4.9632 4.05855 5.507 3.70337 6.10547 3.47168C6.8048 3.21048 7.54368 3.06914 8.29004 3.05371C9.24944 3.01036 9.55654 3 12 3ZM12 4.62207C9.59712 4.62207 9.31236 4.63047 8.36328 4.67383C7.79269 4.68048 7.22736 4.78583 6.69238 4.98438C6.30137 5.12847 5.94738 5.35812 5.65723 5.65723C5.35812 5.94738 5.12847 6.30137 4.98438 6.69238C4.78583 7.22736 4.68048 7.79269 4.67383 8.36328C4.63047 9.31236 4.62207 9.59712 4.62207 12C4.62207 14.4028 4.63048 14.6879 4.67383 15.6367C4.68047 16.2073 4.78584 16.7727 4.98438 17.3076C5.12844 17.6986 5.35815 18.0526 5.65723 18.3428C5.94743 18.6419 6.30129 18.8725 6.69238 19.0166C7.22736 19.2151 7.79269 19.3195 8.36328 19.3262C9.31237 19.3695 9.59711 19.3789 12 19.3789C14.4028 19.3789 14.6879 19.3695 15.6367 19.3262C16.2072 19.3195 16.7727 19.2151 17.3076 19.0166C17.6958 18.8668 18.0485 18.637 18.3428 18.3428C18.637 18.0485 18.8668 17.6958 19.0166 17.3076C19.2151 16.7727 19.3195 16.2072 19.3262 15.6367C19.3695 14.6879 19.3789 14.4028 19.3789 12C19.3789 9.59711 19.3695 9.31237 19.3262 8.36328C19.3195 7.79269 19.2151 7.22736 19.0166 6.69238C18.8725 6.30129 18.6419 5.94743 18.3428 5.65723C18.0526 5.35815 17.6986 5.12844 17.3076 4.98438C16.7727 4.78584 16.2073 4.68047 15.6367 4.67383C14.6879 4.63048 14.4028 4.62207 12 4.62207ZM12 7.37793C13.2258 7.37796 14.4018 7.86468 15.2686 8.73145C16.1353 9.59822 16.6221 10.7742 16.6221 12C16.622 12.914 16.3506 13.8074 15.8428 14.5674C15.3349 15.3275 14.6131 15.9207 13.7686 16.2705C12.9242 16.6202 11.995 16.7114 11.0986 16.5332C10.2021 16.3549 9.37782 15.9149 8.73145 15.2686C8.08505 14.6222 7.64514 13.7979 7.4668 12.9014C7.28853 12.005 7.37981 11.0759 7.72949 10.2314C8.07925 9.38706 8.67178 8.66508 9.43164 8.15723C10.1917 7.64936 11.0859 7.37793 12 7.37793ZM13.1484 9.22754C12.6002 9.00045 11.9961 8.94185 11.4141 9.05762C10.8323 9.17345 10.2974 9.45846 9.87793 9.87793C9.45846 10.2974 9.17345 10.8323 9.05762 11.4141C8.94185 11.9961 9.00045 12.6002 9.22754 13.1484C9.45461 13.6965 9.83975 14.1645 10.333 14.4941C10.8264 14.8238 11.4066 15 12 15C12.7957 15 13.5585 14.6837 14.1211 14.1211C14.6837 13.5585 15 12.7957 15 12C15 11.4066 14.8238 10.8264 14.4941 10.333C14.1645 9.83975 13.6965 9.45461 13.1484 9.22754ZM16.8047 6.11621C17.4012 6.11621 17.8848 6.59981 17.8848 7.19629C17.8846 7.79262 17.4011 8.27637 16.8047 8.27637C16.2083 8.27634 15.7248 7.79261 15.7246 7.19629C15.7246 6.59983 16.2082 6.11623 16.8047 6.11621Z" fill="#1D1D1B"/>
</svg>
