<svg width="140" height="27" viewBox="0 0 140 27" fill="none" xmlns="http://www.w3.org/2000/svg">
<path d="M131.44 26.7434C129.747 26.7434 128.269 26.4049 127.005 25.7279C125.742 25.0508 124.76 24.1142 124.06 22.9181C123.383 21.6994 123.045 20.2663 123.045 18.6188C123.045 16.9488 123.383 15.5157 124.06 14.3196C124.76 13.1009 125.742 12.1643 127.005 11.5098C128.269 10.8328 129.759 10.4943 131.474 10.4943C133.189 10.4943 134.645 10.8102 135.841 11.4421C137.06 12.0515 137.985 12.9542 138.617 14.1503C139.249 15.3239 139.565 16.7457 139.565 18.4157C139.565 18.6188 139.553 18.8332 139.531 19.0589C139.531 19.2846 139.519 19.4652 139.497 19.6006H125.55V16.8924H135.672L134.487 18.4496C134.577 18.3142 134.656 18.1336 134.724 17.9079C134.814 17.6597 134.859 17.4566 134.859 17.2986C134.859 16.5313 134.712 15.8768 134.419 15.3352C134.148 14.7935 133.753 14.3647 133.234 14.0488C132.715 13.7328 132.106 13.5748 131.406 13.5748C130.549 13.5748 129.826 13.7667 129.24 14.1503C128.675 14.5114 128.235 15.0643 127.919 15.8091C127.626 16.5313 127.468 17.434 127.445 18.5173C127.445 19.5554 127.592 20.4356 127.886 21.1578C128.201 21.88 128.664 22.4329 129.273 22.8165C129.883 23.2002 130.616 23.392 131.474 23.392C132.444 23.392 133.268 23.2115 133.945 22.8504C134.645 22.4667 135.22 21.9025 135.672 21.1578L139.497 22.3426C138.684 23.8096 137.601 24.9154 136.247 25.6602C134.916 26.3823 133.313 26.7434 131.44 26.7434Z" fill="#1563ED"/>
<path d="M115.699 10.8328V26.4049H111.399V10.8328H115.699ZM120.269 15.4029C119.975 15.1321 119.671 14.9289 119.355 14.7935C119.061 14.6356 118.689 14.5566 118.238 14.5566C117.696 14.5566 117.233 14.7033 116.85 14.9966C116.466 15.29 116.173 15.7075 115.969 16.2492C115.789 16.7683 115.699 17.4002 115.699 18.1449L114.48 16.9262C114.48 15.685 114.717 14.5904 115.191 13.6425C115.665 12.6721 116.285 11.9048 117.053 11.3406C117.82 10.7538 118.61 10.4604 119.422 10.4604C119.987 10.4604 120.517 10.562 121.013 10.7651C121.533 10.9682 121.95 11.2729 122.266 11.6791L120.269 15.4029Z" fill="#1563ED"/>
<path d="M97.0259 20.3115C97.0259 21.3271 97.229 22.1169 97.6352 22.6812C98.0414 23.2228 98.6959 23.4936 99.5986 23.4936C100.231 23.4936 100.772 23.3695 101.224 23.1212C101.697 22.8504 102.059 22.478 102.307 22.0041C102.578 21.5302 102.713 20.966 102.713 20.3115V10.8328H107.08V26.4049H102.713V24.0353C102.217 24.9154 101.585 25.5925 100.817 26.0664C100.05 26.5178 99.1134 26.7435 98.0076 26.7435C96.157 26.7435 94.769 26.2131 93.8437 25.1524C92.941 24.0917 92.4896 22.636 92.4896 20.7854V10.8328H97.0259V20.3115Z" fill="#1563ED"/>
<path d="M73.2919 2.70821H78.1328V26.4049H73.2919V2.70821ZM76.237 6.80435V2.70821H80.9425C82.8157 2.70821 84.4067 3.01288 85.7157 3.62222C87.0472 4.23157 88.0628 5.10045 88.7624 6.22886C89.462 7.35728 89.8118 8.70009 89.8118 10.2573C89.8118 11.7919 89.462 13.1348 88.7624 14.2857C88.0628 15.4142 87.0472 16.283 85.7157 16.8924C84.4067 17.5017 82.8157 17.8064 80.9425 17.8064H76.237V13.7103H80.9425C82.2289 13.7103 83.2445 13.4169 83.9892 12.8301C84.734 12.2433 85.1064 11.3857 85.1064 10.2573C85.1064 9.10632 84.734 8.24872 83.9892 7.68452C83.2445 7.09774 82.2289 6.80435 80.9425 6.80435H76.237Z" fill="#1563ED"/>
<path d="M64.1581 0H68.5589V26.4049H64.1581V0Z" fill="#142D59"/>
<path d="M52.7265 26.7434C51.0339 26.7434 49.5556 26.4049 48.2918 25.7279C47.028 25.0508 46.0463 24.1142 45.3467 22.9181C44.6696 21.6994 44.3311 20.2663 44.3311 18.6188C44.3311 16.9488 44.6696 15.5157 45.3467 14.3196C46.0463 13.1009 47.028 12.1643 48.2918 11.5098C49.5556 10.8328 51.0452 10.4943 52.7603 10.4943C54.4755 10.4943 55.9312 10.8102 57.1273 11.4421C58.346 12.0515 59.2713 12.9542 59.9032 14.1503C60.5351 15.3239 60.8511 16.7457 60.8511 18.4157C60.8511 18.6188 60.8398 18.8332 60.8172 19.0589C60.8172 19.2846 60.8059 19.4652 60.7834 19.6006H46.8362V16.8924H56.958L55.7732 18.4496C55.8635 18.3142 55.9425 18.1336 56.0102 17.9079C56.1005 17.6597 56.1456 17.4566 56.1456 17.2986C56.1456 16.5313 55.9989 15.8768 55.7055 15.3352C55.4347 14.7935 55.0397 14.3647 54.5207 14.0488C54.0016 13.7328 53.3923 13.5748 52.6926 13.5748C51.835 13.5748 51.1129 13.7667 50.5261 14.1503C49.9619 14.5114 49.5218 15.0643 49.2058 15.8091C48.9124 16.5313 48.7545 17.434 48.7319 18.5173C48.7319 19.5554 48.8786 20.4356 49.172 21.1578C49.4879 21.88 49.9506 22.4329 50.5599 22.8165C51.1693 23.2002 51.9028 23.392 52.7603 23.392C53.7308 23.392 54.5545 23.2115 55.2316 22.8504C55.9312 22.4667 56.5067 21.9025 56.958 21.1578L60.7834 22.3426C59.9709 23.8096 58.8876 24.9154 57.5335 25.6602C56.202 26.3823 54.5997 26.7434 52.7265 26.7434Z" fill="#142D59"/>
<path d="M38.528 10.8328H43.3689L37.614 18.3819L43.7075 26.4049H38.8666L35.3459 21.4625L31.893 26.4049H26.8828L33.0439 18.3819L27.2213 10.8328H32.2315L35.3459 15.3352L38.528 10.8328Z" fill="#142D59"/>
<path d="M19.6558 4.80706C19.6558 4.08487 19.9154 3.4981 20.4344 3.04673C20.9535 2.5728 21.5741 2.33583 22.2963 2.33583C23.0185 2.33583 23.6279 2.5728 24.1244 3.04673C24.6434 3.4981 24.903 4.08487 24.903 4.80706C24.903 5.50668 24.6434 6.09345 24.1244 6.56739C23.6279 7.04132 23.0185 7.27829 22.2963 7.27829C21.5741 7.27829 20.9535 7.04132 20.4344 6.56739C19.9154 6.09345 19.6558 5.50668 19.6558 4.80706ZM20.1298 10.8328H24.3952V26.4049H20.1298V10.8328Z" fill="#142D59"/>
<path d="M0 2.70821H4.8409V26.4049H0V2.70821ZM2.94516 6.80435V2.70821H7.65065C9.52382 2.70821 11.1149 3.01288 12.4238 3.62222C13.7554 4.23157 14.7709 5.10045 15.4706 6.22886C16.1702 7.35728 16.52 8.70009 16.52 10.2573C16.52 11.7919 16.1702 13.1348 15.4706 14.2857C14.7709 15.4142 13.7554 16.283 12.4238 16.8924C11.1149 17.5017 9.52382 17.8064 7.65065 17.8064H2.94516V13.7103H7.65065C8.93704 13.7103 9.95262 13.4169 10.6974 12.8301C11.4421 12.2433 11.8145 11.3857 11.8145 10.2573C11.8145 9.10632 11.4421 8.24872 10.6974 7.68452C9.95262 7.09774 8.93704 6.80435 7.65065 6.80435H2.94516Z" fill="#142D59"/>
</svg>
