<svg width="16" height="16" viewBox="0 0 16 16" fill="none" xmlns="http://www.w3.org/2000/svg">
<path d="M9.79984 9.00002C9.06651 7.66669 8.83918 7.33335 7.99985 7.33335C7.16051 7.33335 6.84251 7.83669 6.10918 9.16469C5.48118 10.3 4.21184 10.3947 3.89518 11.3587C3.83051 11.5354 3.79851 11.81 3.79984 12C3.79984 12.784 4.32451 13.3334 4.99984 13.3334C5.83918 13.3334 6.99985 12.6667 7.99985 12.6667C8.99985 12.6667 10.1605 13.3334 10.9998 13.3334C11.6752 13.3334 12.1998 12.7847 12.1998 12C12.1998 11.81 12.1672 11.5354 12.1025 11.3587C11.7858 10.3914 10.4278 10.1354 9.79984 9.00002Z" stroke="#142D59" stroke-width="1.25" stroke-linecap="round" stroke-linejoin="round"/>
<path d="M13.4585 5.38802C13.3728 5.35182 13.2808 5.33323 13.1878 5.33335H13.1778C12.6878 5.34135 12.1378 5.83335 11.8491 6.57735C11.5031 7.46735 11.6625 8.37735 12.2078 8.61202C12.2938 8.64869 12.3858 8.66669 12.4785 8.66669C12.9711 8.66669 13.5285 8.17202 13.8191 7.42269C14.1631 6.53269 14.0005 5.62269 13.4585 5.38802Z" stroke="#142D59" stroke-width="1.25" stroke-linecap="round" stroke-linejoin="round"/>
<path d="M6.31589 6.00002C6.35255 6.00002 6.38855 6.00002 6.42455 5.99269C7.05389 5.90735 7.44655 5.09535 7.30455 4.17802C7.16922 3.31335 6.60655 2.66669 6.01655 2.66669C5.97989 2.66669 5.94389 2.66669 5.90789 2.67402C5.27855 2.75935 4.88589 3.57135 5.02789 4.48869C5.16389 5.35069 5.72655 6.00002 6.31655 6.00002H6.31589Z" stroke="#142D59" stroke-width="1.25" stroke-linecap="round" stroke-linejoin="round"/>
<path d="M10.9704 4.48869C11.1131 3.57136 10.7204 2.75936 10.0904 2.67402C10.0546 2.66907 10.0186 2.66662 9.98243 2.66669C9.39243 2.66669 8.83043 3.31336 8.69577 4.17802C8.5531 5.09536 8.94577 5.90736 9.57577 5.99269C9.61177 5.99736 9.64777 6.00002 9.68377 6.00002C10.2738 6.00002 10.8371 5.35069 10.9704 4.48869Z" stroke="#142D59" stroke-width="1.25" stroke-linecap="round" stroke-linejoin="round"/>
<path d="M3.79322 8.61202C4.33722 8.37735 4.49588 7.46602 4.15055 6.57735C3.85988 5.82802 3.30322 5.33335 2.81122 5.33335C2.71788 5.33335 2.62655 5.35135 2.53988 5.38802C1.99588 5.62269 1.83722 6.53402 2.18255 7.42269C2.47322 8.17202 3.02988 8.66669 3.52188 8.66669C3.61522 8.66669 3.70655 8.64869 3.79322 8.61202Z" stroke="#142D59" stroke-width="1.25" stroke-linecap="round" stroke-linejoin="round"/>
</svg>
