<svg width="24" height="24" viewBox="0 0 24 24" fill="none" xmlns="http://www.w3.org/2000/svg">
<path d="M10.765 3.08553C12.4686 2.84818 14.205 3.10734 15.767 3.83162C17.3287 4.55592 18.6512 5.71529 19.5785 7.17244C20.5059 8.62978 20.9992 10.3238 20.9994 12.0543C20.9994 14.2116 20.2342 16.2981 18.8412 17.9381C17.4481 19.578 15.5187 20.6637 13.4008 20.9996V14.6724H15.5004L15.8998 12.0543H13.4056V10.356C13.3968 10.2595 13.3987 10.1621 13.4115 10.066C13.457 9.7222 13.6369 9.41063 13.9105 9.19979C14.1844 8.98894 14.5306 8.89632 14.8724 8.94197H16.0072V6.71248C15.3408 6.6047 14.6675 6.54547 13.9926 6.53572C11.9376 6.53572 10.5931 7.79 10.5931 10.0592V12.0543H8.30799V14.6724H10.5931V20.9996C8.89462 20.7291 7.30852 19.9749 6.02283 18.8258C4.7371 17.6766 3.80541 16.1806 3.33826 14.5152C2.87117 12.8498 2.88817 11.0843 3.38709 9.4283C3.88605 7.77229 4.84616 6.29455 6.15369 5.17049C7.4612 4.04651 9.06158 3.32293 10.765 3.08553Z" fill="#1D1D1B"/>
</svg>
