<svg width="61" height="26" fill="none" xmlns="http://www.w3.org/2000/svg"><path d="M52.2926 25.3411C50.4972 25.3411 48.9517 24.9775 47.6563 24.2502C46.3684 23.5153 45.376 22.4775 44.679 21.1365C43.982 19.7881 43.6335 18.1934 43.6335 16.3524C43.6335 14.557 43.982 12.9812 44.679 11.6252C45.376 10.2691 46.357 9.2123 47.6222 8.45472C48.8949 7.69715 50.3873 7.31836 52.0994 7.31836C53.251 7.31836 54.3229 7.50397 55.3154 7.87518C56.3154 8.23881 57.1866 8.78806 57.929 9.5229C58.679 10.2578 59.2623 11.182 59.679 12.2956C60.0957 13.4017 60.304 14.6971 60.304 16.182V17.5115H45.5654V14.5115H55.7472C55.7472 13.8146 55.5957 13.1971 55.2926 12.6593C54.9896 12.1214 54.5691 11.7009 54.0313 11.3979C53.501 11.0873 52.8835 10.932 52.179 10.932C51.4442 10.932 50.7926 11.1024 50.2244 11.4434C49.6638 11.7767 49.2244 12.2274 48.9063 12.7956C48.5881 13.3562 48.4252 13.9812 48.4176 14.6706V17.5229C48.4176 18.3865 48.5767 19.1328 48.8949 19.7615C49.2207 20.3903 49.679 20.8752 50.2699 21.2161C50.8608 21.557 51.5616 21.7274 52.3722 21.7274C52.9101 21.7274 53.4025 21.6517 53.8494 21.5002C54.2964 21.3487 54.679 21.1214 54.9972 20.8184C55.3154 20.5153 55.5578 20.1441 55.7244 19.7047L60.2017 20.0002C59.9744 21.0759 59.5085 22.0153 58.804 22.8184C58.107 23.6138 57.2055 24.235 56.0994 24.682C55.001 25.1214 53.732 25.3411 52.2926 25.3411Z" fill="#1563ED"/><path d="M29.2728 14.9093V25.0002H24.4319V7.54563H29.0455V10.6252H29.2501C29.6364 9.61003 30.2841 8.80699 31.1932 8.21609C32.1023 7.6176 33.2046 7.31836 34.5001 7.31836C35.7122 7.31836 36.769 7.58351 37.6705 8.11381C38.572 8.64412 39.2728 9.40169 39.7728 10.3865C40.2728 11.3638 40.5228 12.5305 40.5228 13.8865V25.0002H35.6819V14.7502C35.6895 13.682 35.4167 12.8487 34.8637 12.2502C34.3107 11.6441 33.5493 11.3411 32.5796 11.3411C31.9281 11.3411 31.3523 11.4812 30.8523 11.7615C30.3599 12.0418 29.9735 12.4509 29.6932 12.9888C29.4205 13.5191 29.2804 14.1593 29.2728 14.9093Z" fill="#1563ED"/><path d="M22 12.5C22 15.1537 21.5144 17.4113 20.5433 19.2728C19.5798 21.1343 18.2645 22.5562 16.5975 23.5385C14.9381 24.5128 13.0723 25 11 25C8.91241 25 7.03893 24.5089 5.37956 23.5266C3.72019 22.5444 2.40876 21.1225 1.44525 19.2609C0.48175 17.3994 0 15.1458 0 12.5C0 9.84632 0.48175 7.58872 1.44525 5.72719C2.40876 3.86565 3.72019 2.44772 5.37956 1.47339C7.03893 0.491128 8.91241 0 11 0C13.0723 0 14.9381 0.491128 16.5975 1.47339C18.2645 2.44772 19.5798 3.86565 20.5433 5.72719C21.5144 7.58872 22 9.84632 22 12.5ZM16.9645 12.5C16.9645 10.7811 16.716 9.33143 16.219 8.15114C15.7296 6.97085 15.0375 6.07573 14.1429 5.46578C13.2482 4.85583 12.2006 4.55086 11 4.55086C9.79945 4.55086 8.75182 4.85583 7.85714 5.46578C6.96246 6.07573 6.26659 6.97085 5.76955 8.15114C5.28015 9.33143 5.03545 10.7811 5.03545 12.5C5.03545 14.2189 5.28015 15.6686 5.76955 16.8489C6.26659 18.0292 6.96246 18.9243 7.85714 19.5342C8.75182 20.1442 9.79945 20.4491 11 20.4491C12.2006 20.4491 13.2482 20.1442 14.1429 19.5342C15.0375 18.9243 15.7296 18.0292 16.219 16.8489C16.716 15.6686 16.9645 14.2189 16.9645 12.5Z" fill="#1563ED"/></svg>