<svg width="75" height="75" viewBox="0 0 75 75" fill="none" xmlns="http://www.w3.org/2000/svg">
<g clip-path="url(#clip0_27815_1498)">
<path fill-rule="evenodd" clip-rule="evenodd" d="M74.7017 37.4618C74.7017 57.9834 58.065 74.6218 37.545 74.6218C17.0233 74.6218 0.388329 57.9834 0.388329 37.4618C0.388329 16.9384 17.0233 0.301758 37.545 0.301758C58.065 0.301758 74.7017 16.9384 74.7017 37.4618Z" fill="white"/>
<path fill-rule="evenodd" clip-rule="evenodd" d="M63.9784 63.8969C56.9184 70.9569 47.5317 74.8435 37.545 74.8435C27.5567 74.8435 18.17 70.9569 11.11 63.8969C4.04667 56.8352 0.158333 47.4469 0.158333 37.4619C0.158333 27.4752 4.04667 18.0869 11.11 11.0252C18.17 3.96353 27.5567 0.0751953 37.545 0.0751953C47.5317 0.0751953 56.9184 3.96353 63.9784 11.0252C71.0417 18.0869 74.93 27.4752 74.93 37.4619C74.93 47.4469 71.0417 56.8352 63.9784 63.8969ZM62.96 12.0435C56.17 5.25853 47.145 1.51853 37.545 1.51853C27.9417 1.51853 18.9183 5.25853 12.1283 12.0435C5.34 18.8335 1.60167 27.8602 1.60167 37.4619C1.60167 47.0619 5.34 56.0869 12.1283 62.8785C18.9183 69.6652 27.9417 73.4052 37.545 73.4052C47.145 73.4052 56.17 69.6652 62.96 62.8785C69.7484 56.0869 73.485 47.0619 73.485 37.4619C73.485 27.8602 69.7484 18.8335 62.96 12.0435ZM69.7684 47.5435H5.31834C4.15667 45.5502 3.525 40.7585 3.525 36.9352C3.525 18.1502 18.7567 3.23686 37.545 3.23686C56.33 3.23686 71.5617 18.2535 71.5617 37.0419C71.5617 40.8619 70.93 45.5502 69.7684 47.5435ZM52.5117 42.3385C52.5117 42.6885 52.7967 42.9735 53.1467 42.9735C53.4967 42.9735 53.7817 42.6885 53.7817 42.3385V40.2369L54.4067 39.5802L56.66 42.7002C56.7484 42.8202 56.9117 42.9735 57.175 42.9735C57.515 42.9735 57.7984 42.6885 57.7984 42.3502C57.7984 42.2185 57.755 42.0869 57.6784 41.9885L55.26 38.6935L57.3184 36.4602C57.415 36.3519 57.4817 36.2202 57.4817 36.0452C57.4819 35.9646 57.4662 35.8847 57.4355 35.8102C57.4047 35.7357 57.3595 35.668 57.3025 35.611C57.2455 35.554 57.1778 35.5088 57.1033 35.4781C57.0288 35.4474 56.949 35.4316 56.8684 35.4319C56.7034 35.4319 56.54 35.4969 56.4084 35.6402L53.7817 38.5735V36.0669C53.7817 35.7169 53.4967 35.4319 53.1467 35.4319C52.7967 35.4319 52.5117 35.7169 52.5117 36.0669V42.3385ZM49.9384 42.3385C49.9384 42.6885 50.2234 42.9735 50.5734 42.9735C50.9234 42.9735 51.2084 42.6885 51.2084 42.3385V36.0669C51.2084 35.7169 50.9234 35.4319 50.5734 35.4319C50.2234 35.4319 49.9384 35.7169 49.9384 36.0669V42.3385ZM49.9834 34.9835C50.125 35.1152 50.3 35.1469 50.485 34.9835L51.5584 33.9985C51.7334 33.8335 51.755 33.5719 51.515 33.3419C51.2967 33.1235 51.0117 33.1119 50.8584 33.3085L49.9284 34.4902C49.8067 34.6219 49.8067 34.8185 49.9834 34.9835ZM43.04 42.3502C43.04 42.6885 43.325 42.9735 43.665 42.9735C44.0033 42.9735 44.2884 42.6885 44.2884 42.3502V38.0369L47.5167 42.7002C47.6267 42.8635 47.825 42.9735 48.0317 42.9735C48.3717 42.9735 48.655 42.6885 48.655 42.3502V36.0552C48.655 35.7169 48.3717 35.4319 48.0317 35.4319C47.6934 35.4319 47.4084 35.7169 47.4084 36.0552V40.3902L44.1684 35.6952C44.0584 35.5302 43.8834 35.4319 43.665 35.4319C43.325 35.4319 43.04 35.7169 43.04 36.0552V42.3502ZM37.29 42.8852H41.7667C42.0834 42.8852 42.335 42.6335 42.335 42.3169C42.335 41.9985 42.0834 41.7469 41.7667 41.7469H38.4284L42.095 36.3952C42.1717 36.2852 42.1934 36.1752 42.1934 36.0769C42.1934 35.7719 41.9417 35.5185 41.635 35.5185H37.4967C37.1917 35.5185 36.94 35.7719 36.94 36.0769C36.94 36.3835 37.1917 36.6369 37.4967 36.6369H40.5084L36.83 41.9769C36.7634 42.0652 36.72 42.1969 36.72 42.3169C36.72 42.6335 36.9734 42.8852 37.29 42.8852ZM38.745 32.2769C38.87 32.4402 39.095 32.5402 39.3084 32.5402C39.7084 32.5402 40.0334 32.2135 40.0334 31.8135C40.0334 31.6769 39.995 31.5269 39.8834 31.3769L38.0334 29.1252C39.2334 28.9752 39.9584 27.8252 39.9584 26.6369C39.9584 25.2252 39.0084 24.0235 37.32 24.0235H34.9317C34.5317 24.0235 34.2067 24.3485 34.2067 24.7485V31.8135C34.2067 32.2135 34.5317 32.5402 34.9317 32.5402C35.3317 32.5402 35.6567 32.2135 35.6567 31.8135V29.2135H36.47L38.745 32.2769ZM38.6083 22.2235C38.6083 21.9485 38.395 21.7352 38.12 21.7352C38.0067 21.7352 37.895 21.7735 37.8317 21.8235L36.9317 22.4485L36.0317 21.8235C35.97 21.7735 35.8567 21.7352 35.745 21.7352C35.47 21.7352 35.2567 21.9485 35.2567 22.2235C35.2567 22.4235 35.3567 22.5485 35.4817 22.6352L36.645 23.4119C36.7317 23.4735 36.8317 23.4985 36.9317 23.4985C37.0317 23.4985 37.1317 23.4735 37.22 23.4119L38.3834 22.6352C38.5084 22.5485 38.6083 22.4235 38.6083 22.2235ZM30.4033 42.9735C30.6867 42.9735 30.895 42.7869 30.9933 42.5569L31.6617 40.9702H34.31L34.9783 42.5569C35.075 42.7869 35.2834 42.9735 35.5684 42.9735C35.9084 42.9735 36.1934 42.6885 36.1934 42.3502C36.1934 42.2835 36.1817 42.1969 36.1483 42.1202L33.5667 35.8252C33.5 35.6719 33.325 35.4319 32.985 35.4319C32.6467 35.4319 32.4717 35.6719 32.405 35.8252L29.8217 42.1202C29.79 42.1969 29.7783 42.2835 29.7783 42.3502C29.7783 42.6885 30.0633 42.9735 30.4033 42.9735ZM23.98 42.3385C23.98 42.6885 24.265 42.9735 24.615 42.9735C24.965 42.9735 25.25 42.6885 25.25 42.3385V40.2369L25.8733 39.5802L28.1283 42.7002C28.2167 42.8202 28.38 42.9735 28.6433 42.9735C28.9817 42.9735 29.2667 42.6885 29.2667 42.3502C29.2667 42.2185 29.2233 42.0869 29.1467 41.9885L26.7267 38.6935L28.785 36.4602C28.8833 36.3519 28.95 36.2202 28.95 36.0452C28.9502 35.9646 28.9345 35.8847 28.9038 35.8102C28.873 35.7357 28.8279 35.668 28.7709 35.611C28.7139 35.554 28.6462 35.5088 28.5717 35.4781C28.4971 35.4474 28.4173 35.4316 28.3367 35.4319C28.1717 35.4319 28.0083 35.4969 27.8767 35.6402L25.25 38.5735V36.0669C25.25 35.7169 24.965 35.4319 24.615 35.4319C24.265 35.4319 23.98 35.7169 23.98 36.0669V42.3385ZM17.4217 42.9735C17.705 42.9735 17.9133 42.7869 18.0117 42.5569L18.6783 40.9702H21.3283L21.995 42.5569C22.0933 42.7869 22.3017 42.9735 22.5867 42.9735C22.9267 42.9735 23.21 42.6885 23.21 42.3502C23.21 42.2835 23.2 42.1969 23.1667 42.1202L20.5833 35.8252C20.5183 35.6719 20.3417 35.4319 20.0033 35.4319C19.6633 35.4319 19.4883 35.6719 19.4233 35.8252L16.84 42.1202C16.8067 42.1969 16.7967 42.2835 16.7967 42.3502C16.7967 42.6885 17.0817 42.9735 17.4217 42.9735ZM20.7483 33.3419C20.5283 33.1235 20.245 33.1119 20.0917 33.3085L19.16 34.4902C19.04 34.6219 19.04 34.8185 19.215 34.9835C19.3583 35.1152 19.5333 35.1469 19.7183 34.9835L20.7917 33.9985C20.9667 33.8335 20.9883 33.5719 20.7483 33.3419ZM10.8883 36.0769C10.8883 36.3835 11.14 36.6369 11.4467 36.6369H14.4567L10.78 41.9769C10.7133 42.0652 10.67 42.1969 10.67 42.3169C10.67 42.6335 10.9217 42.8852 11.24 42.8852H15.7167C16.0333 42.8852 16.285 42.6335 16.285 42.3169C16.285 41.9985 16.0333 41.7469 15.7167 41.7469H12.3783L16.0433 36.3952C16.1217 36.2852 16.1433 36.1752 16.1433 36.0769C16.1433 35.7719 15.8917 35.5185 15.585 35.5185H11.4467C11.14 35.5185 10.8883 35.7719 10.8883 36.0769ZM11.5967 28.2385C11.5967 31.1635 13.035 32.6152 15.5617 32.6152C18.0867 32.6152 19.525 31.1635 19.525 28.2385C19.525 25.2735 18.0867 23.8485 15.5617 23.8485C13.035 23.8485 11.5967 25.2735 11.5967 28.2385ZM20.8617 15.4885H19.0767C19.0583 15.4269 19.0383 15.3735 19.02 15.3169C18.8567 14.8202 18.6967 14.3219 18.535 13.8235C18.5117 13.7502 18.4783 13.6902 18.4067 13.6569C18.28 13.5985 18.145 13.6585 18.0967 13.7969C17.9817 14.1535 17.8683 14.5085 17.7517 14.8669C17.685 15.0735 17.6167 15.2802 17.55 15.4885H15.7983C15.7667 15.4885 15.7317 15.4885 15.7 15.4969C15.6117 15.5235 15.5567 15.5852 15.54 15.6752C15.5217 15.7735 15.5567 15.8519 15.64 15.9119C16.1033 16.2519 16.5667 16.5902 17.0333 16.9252C17.07 16.9535 17.075 16.9752 17.0617 17.0185C16.95 17.3602 16.8367 17.7052 16.7233 18.0502C16.6583 18.2502 16.5917 18.4519 16.53 18.6519C16.4817 18.7935 16.5533 18.9269 16.6917 18.9552C16.7717 18.9719 16.8367 18.9402 16.9 18.8952C17.35 18.5652 17.8033 18.2352 18.2533 17.9052C18.3 17.8719 18.3267 17.8735 18.37 17.9069C18.5233 18.0219 18.6783 18.1319 18.8317 18.2452C19.1383 18.4635 19.4417 18.6902 19.7467 18.9085C19.8983 19.0185 20.0933 18.9352 20.1083 18.7535C20.1133 18.7102 20.1 18.6635 20.0867 18.6202C19.9133 18.0869 19.7383 17.5535 19.5633 17.0202C19.5483 16.9752 19.555 16.9535 19.5917 16.9252C20.0567 16.5902 20.5183 16.2519 20.98 15.9152C21.015 15.8852 21.0517 15.8485 21.0717 15.8069C21.14 15.6569 21.0267 15.4885 20.8617 15.4885ZM20.5817 23.9235C20.1817 23.9235 19.855 24.2485 19.855 24.6485C19.855 24.7619 19.8683 24.8369 19.9067 24.9252L22.745 32.0769C22.845 32.3269 23.045 32.5402 23.42 32.5402C23.795 32.5402 23.995 32.3269 24.095 32.0769L26.9333 24.9252C26.9717 24.8369 26.9833 24.7619 26.9833 24.6485C26.9833 24.2485 26.6583 23.9235 26.2583 23.9235C25.8967 23.9235 25.67 24.1619 25.595 24.3485L23.42 30.1135L21.245 24.3485C21.1683 24.1485 20.9433 23.9235 20.5817 23.9235ZM28.8467 11.6202C28.1817 11.6185 27.5167 11.6202 26.85 11.6202H26.765C26.7417 11.5485 26.72 11.4852 26.7 11.4202C26.51 10.8385 26.3217 10.2602 26.1333 9.67519C26.1067 9.59186 26.0683 9.52186 25.9833 9.4802C25.8367 9.41519 25.6767 9.4852 25.6233 9.64686C25.4867 10.0602 25.355 10.4785 25.2167 10.8919C25.14 11.1335 25.0617 11.3752 24.985 11.6202H22.94C22.9017 11.6202 22.86 11.6185 22.825 11.6302C22.7183 11.6585 22.655 11.7335 22.6367 11.8369C22.615 11.9535 22.6583 12.0452 22.7533 12.1152C23.2967 12.5085 23.8367 12.9035 24.38 13.2985C24.4217 13.3285 24.4317 13.3552 24.4133 13.4052C24.28 13.8052 24.15 14.2085 24.02 14.6069C23.9417 14.8435 23.865 15.0785 23.7883 15.3102C23.7367 15.4802 23.8217 15.6319 23.98 15.6669C24.075 15.6869 24.15 15.6485 24.2233 15.5952C24.7517 15.2102 25.2767 14.8269 25.8033 14.4402C25.8583 14.4019 25.89 14.4035 25.9417 14.4402C26.12 14.5769 26.3 14.7052 26.48 14.8352C26.835 15.0952 27.19 15.3552 27.5467 15.6119C27.725 15.7402 27.9533 15.6419 27.97 15.4302C27.9733 15.3785 27.96 15.3252 27.945 15.2752C27.74 14.6519 27.5367 14.0302 27.3317 13.4085C27.3133 13.3552 27.3217 13.3285 27.3667 13.2969C27.9083 12.9035 28.4467 12.5102 28.985 12.1152C29.03 12.0835 29.07 12.0402 29.09 11.9919C29.1717 11.8152 29.0417 11.6202 28.8467 11.6202ZM31.8333 21.7352C31.7217 21.7352 31.6083 21.7735 31.545 21.8235L30.645 22.4485L29.745 21.8235C29.6833 21.7735 29.57 21.7352 29.4583 21.7352C29.1833 21.7352 28.97 21.9485 28.97 22.2235C28.97 22.4235 29.07 22.5485 29.195 22.6352L30.3583 23.4119C30.445 23.4735 30.5467 23.4985 30.645 23.4985C30.745 23.4985 30.845 23.4735 30.9333 23.4119L32.0967 22.6352C32.2217 22.5485 32.3217 22.4235 32.3217 22.2235C32.3217 21.9485 32.1083 21.7352 31.8333 21.7352ZM28.5817 24.0235C28.1817 24.0235 27.8567 24.3485 27.8567 24.7485V31.7135C27.8567 32.1152 28.1817 32.4402 28.5817 32.4402H32.6217C32.9833 32.4402 33.2717 32.1519 33.2717 31.7885C33.2717 31.4269 32.9833 31.1385 32.6217 31.1385H29.3067V28.8385H31.6717C32.02 28.8385 32.3083 28.5502 32.3083 28.2002C32.3083 27.8502 32.02 27.5635 31.6717 27.5635H29.3067V25.3252H32.4833C32.8467 25.3252 33.1334 25.0369 33.1334 24.6735C33.1334 24.3119 32.8467 24.0235 32.4833 24.0235H28.5817ZM41.77 8.35186H38.81C38.7767 8.25186 38.7484 8.16019 38.7183 8.07186C38.4467 7.24186 38.18 6.41519 37.9117 5.5902C37.8734 5.47019 37.8167 5.37019 37.6967 5.31519C37.49 5.21853 37.2617 5.31853 37.1867 5.54686C36.9917 6.13686 36.8034 6.7302 36.61 7.32186L36.2767 8.35186H33.37C33.3167 8.35186 33.2584 8.35186 33.2067 8.36686C33.0583 8.4052 32.9667 8.51353 32.94 8.66019C32.91 8.82686 32.9733 8.95519 33.1083 9.05353C33.8783 9.61519 34.6467 10.1802 35.4167 10.7385C35.4767 10.7835 35.49 10.8185 35.4667 10.8869C35.2767 11.4585 35.0917 12.0319 34.9067 12.6035C34.795 12.9352 34.685 13.2685 34.5817 13.6019C34.5033 13.8385 34.625 14.0552 34.8517 14.1052C34.9833 14.1335 35.0917 14.0802 35.1967 14.0069C35.9467 13.4569 36.6967 12.9119 37.445 12.3619C37.52 12.3085 37.5667 12.3085 37.6384 12.3619C37.89 12.5552 38.1483 12.7385 38.4034 12.9235C38.91 13.2935 39.4134 13.6635 39.9217 14.0302C40.175 14.2102 40.4967 14.0702 40.5217 13.7702C40.53 13.6985 40.5084 13.6185 40.485 13.5485C40.1967 12.6652 39.91 11.7802 39.6167 10.8952C39.5917 10.8185 39.6034 10.7835 39.6667 10.7385C40.4367 10.1802 41.2034 9.61853 41.9667 9.05853C42.0284 9.01353 42.0867 8.94853 42.1184 8.88019C42.23 8.63186 42.045 8.35353 41.77 8.35186ZM41.855 24.0235C41.455 24.0235 41.13 24.3485 41.13 24.7485V31.7135C41.13 32.1152 41.455 32.4402 41.855 32.4402H45.8933C46.2567 32.4402 46.5434 32.1519 46.5434 31.7885C46.5434 31.4269 46.2567 31.1385 45.8933 31.1385H42.58V28.8385H44.9434C45.2934 28.8385 45.5817 28.5502 45.5817 28.2002C45.5817 27.8502 45.2934 27.5635 44.9434 27.5635H42.58V25.3252H45.7567C46.1184 25.3252 46.4067 25.0369 46.4067 24.6735C46.4067 24.3119 46.1184 24.0235 45.7567 24.0235H41.855ZM52.045 11.6202C51.3784 11.6185 50.7134 11.6202 50.0484 11.6202H49.9634C49.9384 11.5485 49.9184 11.4852 49.8967 11.4202C49.7084 10.8385 49.5184 10.2602 49.33 9.67519C49.3034 9.59186 49.265 9.52186 49.18 9.4802C49.0334 9.41519 48.8734 9.4852 48.82 9.64686C48.6817 10.0602 48.55 10.4785 48.415 10.8919C48.3367 11.1335 48.2584 11.3752 48.18 11.6202H46.1367C46.0984 11.6202 46.0567 11.6185 46.02 11.6302C45.9167 11.6585 45.8517 11.7335 45.835 11.8369C45.8134 11.9535 45.8567 12.0452 45.9517 12.1152C46.4917 12.5085 47.0334 12.9035 47.5767 13.2985C47.62 13.3285 47.6267 13.3552 47.61 13.4052C47.4784 13.8052 47.3467 14.2085 47.2167 14.6069C47.14 14.8435 47.0617 15.0785 46.9867 15.3102C46.935 15.4802 47.0184 15.6319 47.1784 15.6669C47.27 15.6869 47.3467 15.6485 47.42 15.5952C47.9484 15.2102 48.4767 14.8269 49.0017 14.4402C49.0567 14.4019 49.0867 14.4035 49.1384 14.4402C49.315 14.5769 49.4984 14.7052 49.6767 14.8352C50.0334 15.0952 50.3867 15.3552 50.745 15.6119C50.9217 15.7402 51.1484 15.6419 51.1667 15.4302C51.1717 15.3785 51.1567 15.3252 51.14 15.2752C50.9367 14.6519 50.735 14.0302 50.53 13.4085C50.5117 13.3552 50.52 13.3285 50.565 13.2969C51.105 12.9035 51.645 12.5102 52.1817 12.1152C52.225 12.0835 52.2667 12.0402 52.2867 11.9919C52.3684 11.8152 52.2384 11.6202 52.045 11.6202ZM53.15 23.9235C52.7617 23.9235 52.4367 24.2485 52.4367 24.6369V29.5885L48.735 24.2235C48.61 24.0369 48.41 23.9235 48.16 23.9235C47.7717 23.9235 47.4467 24.2485 47.4467 24.6369V31.8269C47.4467 32.2135 47.7717 32.5402 48.16 32.5402C48.5467 32.5402 48.8734 32.2135 48.8734 31.8269V26.9002L52.5617 32.2269C52.6867 32.4152 52.9117 32.5402 53.15 32.5402C53.5367 32.5402 53.8617 32.2135 53.8617 31.8269V24.6369C53.8617 24.2485 53.5367 23.9235 53.15 23.9235ZM59.1784 15.4885H57.395C57.375 15.4269 57.3567 15.3735 57.3384 15.3169C57.1767 14.8202 57.015 14.3219 56.8534 13.8235C56.8317 13.7502 56.7967 13.6902 56.7234 13.6569C56.5984 13.5985 56.4617 13.6585 56.4167 13.7969C56.3 14.1535 56.185 14.5085 56.07 14.8669C56.0034 15.0735 55.935 15.2802 55.8667 15.4885H54.1184C54.085 15.4885 54.0484 15.4885 54.0184 15.4969C53.9284 15.5235 53.875 15.5852 53.8584 15.6752C53.84 15.7735 53.8767 15.8519 53.9584 15.9119C54.4234 16.2519 54.8867 16.5902 55.35 16.9252C55.3867 16.9535 55.3967 16.9752 55.38 17.0185C55.265 17.3602 55.1534 17.7052 55.0417 18.0502C54.9767 18.2502 54.91 18.4519 54.8467 18.6519C54.8017 18.7935 54.8717 18.9269 55.01 18.9552C55.09 18.9719 55.155 18.9402 55.2167 18.8952C55.67 18.5652 56.1217 18.2352 56.5717 17.9052C56.6184 17.8719 56.6467 17.8735 56.69 17.9069C56.8417 18.0219 56.9984 18.1319 57.15 18.2452C57.4567 18.4635 57.76 18.6902 58.065 18.9085C58.2184 19.0185 58.4117 18.9352 58.4267 18.7535C58.43 18.7102 58.4184 18.6635 58.405 18.6202C58.2317 18.0869 58.0567 17.5535 57.88 17.0202C57.8667 16.9752 57.8734 16.9535 57.9117 16.9252C58.375 16.5902 58.8367 16.2519 59.2967 15.9152C59.3334 15.8852 59.37 15.8485 59.3884 15.8069C59.4567 15.6569 59.345 15.4885 59.1784 15.4885ZM58.945 23.8485C56.4184 23.8485 54.98 25.2735 54.98 28.2385C54.98 31.1635 56.4184 32.6152 58.945 32.6152C61.47 32.6152 62.9084 31.1635 62.9084 28.2385C62.9084 25.2735 61.47 23.8485 58.945 23.8485ZM63.16 35.4319C62.9317 35.4319 62.7334 35.5519 62.625 35.7269L60.9717 38.3219L59.3184 35.7269C59.1984 35.5419 59.0134 35.4319 58.7834 35.4319C58.4317 35.4319 58.1484 35.7169 58.1484 36.0669C58.1484 36.1869 58.18 36.3185 58.2467 36.4052L60.3367 39.5252V42.3385C60.3367 42.6885 60.6217 42.9735 60.9717 42.9735C61.3217 42.9735 61.6067 42.6885 61.6067 42.3385V39.5252L63.6967 36.4052C63.7634 36.3185 63.795 36.1869 63.795 36.0669C63.795 35.7169 63.51 35.4319 63.16 35.4319ZM58.945 31.3135C57.2934 31.3135 56.4817 30.3019 56.4817 28.2385C56.4817 26.1619 57.2934 25.1485 58.945 25.1485C60.595 25.1485 61.4084 26.1619 61.4084 28.2385C61.4084 30.3019 60.595 31.3135 58.945 31.3135ZM18.025 28.2385C18.025 30.3019 17.2117 31.3135 15.5617 31.3135C13.91 31.3135 13.0983 30.3019 13.0983 28.2385C13.0983 26.1619 13.91 25.1485 15.5617 25.1485C17.2117 25.1485 18.025 26.1619 18.025 28.2385ZM20.9017 39.8102H19.1067L20.0033 37.5119L20.9017 39.8102ZM33.8834 39.8102H32.0883L32.985 37.5119L33.8834 39.8102ZM35.6567 25.3252H37.3067C38.12 25.3252 38.4584 25.9619 38.4584 26.6369C38.4584 27.3002 38.12 27.9385 37.345 27.9385H35.6567V25.3252Z" fill="#E7C520"/>
<path fill-rule="evenodd" clip-rule="evenodd" d="M30.595 60.1854C30.595 60.5354 30.31 60.8204 29.96 60.8204C29.6117 60.8204 29.3267 60.5354 29.3267 60.1854V57.5554H26.2033V60.1854C26.2033 60.5354 25.92 60.8204 25.5717 60.8204C25.22 60.8204 24.9367 60.5354 24.9367 60.1854V53.9288C24.9367 53.5788 25.22 53.2954 25.5717 53.2954C25.92 53.2954 26.2033 53.5788 26.2033 53.9288V56.3971H29.3267V53.9288C29.3267 53.7606 29.3935 53.5993 29.5124 53.4804C29.6313 53.3614 29.7926 53.2946 29.9608 53.2946C30.129 53.2946 30.2903 53.3614 30.4093 53.4804C30.5282 53.5993 30.595 53.7606 30.595 53.9288V60.1854ZM33.935 55.6188C35.78 55.6188 36.1183 57.0404 36.1183 57.7971C36.1183 58.1988 36.1183 58.6688 35.4517 58.6688H32.755C32.755 59.4554 33.3133 59.8154 34.0333 59.8154C34.515 59.8154 34.8517 59.6521 35.1133 59.4771C35.235 59.4004 35.3217 59.3554 35.465 59.3554C35.7467 59.3554 35.98 59.5854 35.98 59.8704C35.98 60.0454 35.8883 60.1854 35.79 60.2738C35.605 60.4504 35.0267 60.8754 34.0333 60.8754C32.515 60.8754 31.575 60.0571 31.575 58.2304C31.575 56.5621 32.45 55.6188 33.935 55.6188ZM32.7883 57.6854H34.9517C34.9517 57.1521 34.645 56.6288 33.935 56.6288C33.3033 56.6288 32.8417 56.9888 32.7883 57.6854ZM38.0633 56.2771V58.8221C38.0633 59.3221 38.2367 59.8021 39.0467 59.8021C39.845 59.8021 40.0183 59.3221 40.0183 58.8221V56.2771C40.0183 55.9504 40.28 55.6871 40.6083 55.6871C40.9367 55.6871 41.1967 55.9504 41.1967 56.2771V58.8221C41.1967 59.8938 40.7917 60.8754 39.0467 60.8754C37.2867 60.8754 36.8817 59.8938 36.8817 58.8221V56.2771C36.8817 55.9504 37.1467 55.6871 37.4733 55.6871C37.8017 55.6871 38.0633 55.9504 38.0633 56.2771ZM43.4133 56.3321C43.62 55.9071 44.1333 55.6338 44.595 55.6338C44.8983 55.6338 45.1517 55.8821 45.1517 56.1904C45.1517 56.4938 44.8983 56.7471 44.595 56.7471C43.84 56.7471 43.4133 57.2271 43.4133 57.9588V60.2304C43.4133 60.5554 43.1533 60.8204 42.8233 60.8204C42.7458 60.8204 42.6691 60.8052 42.5975 60.7755C42.526 60.7459 42.4609 60.7024 42.4061 60.6476C42.3513 60.5928 42.3079 60.5278 42.2782 60.4562C42.2486 60.3846 42.2333 60.3079 42.2333 60.2304V56.2771C42.2333 55.9504 42.4967 55.6871 42.8233 55.6871C43.1533 55.6871 43.4133 55.9504 43.4133 56.2771V56.3321ZM47.8033 55.6188C49.6483 55.6188 49.9867 57.0404 49.9867 57.7971C49.9867 58.1988 49.9867 58.6688 49.3217 58.6688H46.6233C46.6233 59.4554 47.18 59.8154 47.9017 59.8154C48.3833 59.8154 48.72 59.6521 48.9833 59.4771C49.1033 59.4004 49.1917 59.3554 49.3317 59.3554C49.6167 59.3554 49.845 59.5854 49.845 59.8704C49.845 60.0454 49.7583 60.1854 49.66 60.2738C49.475 60.4504 48.8933 60.8754 47.9017 60.8754C46.3817 60.8754 45.445 60.0571 45.445 58.2304C45.445 56.5621 46.32 55.6188 47.8033 55.6188ZM46.655 57.6854H48.8217C48.8217 57.1521 48.515 56.6288 47.8033 56.6288C47.1683 56.6288 46.7133 56.9888 46.655 57.6854ZM54.0167 60.5904L52.39 58.4054L52.04 58.6788V60.2538C52.04 60.5804 51.7783 60.8204 51.4533 60.8204C51.1133 60.8204 50.8617 60.5804 50.8617 60.2538V53.5271C50.8617 53.1988 51.1133 52.9604 51.4533 52.9604C51.7783 52.9604 52.04 53.1988 52.04 53.5271V57.3821L54.0167 55.8304C54.1583 55.7204 54.2683 55.6871 54.3983 55.6871C54.7167 55.6871 54.9667 55.9371 54.9667 56.2538C54.9667 56.4171 54.8917 56.5938 54.7483 56.7038L53.3167 57.7971L54.925 59.9038C55.0117 60.0221 55.0433 60.1454 55.0433 60.2538C55.0433 60.5721 54.7917 60.8204 54.475 60.8204C54.2683 60.8204 54.115 60.7204 54.0167 60.5904ZM56.6167 57.0854C56.5067 57.1621 56.42 57.1954 56.2883 57.1954C56.005 57.1954 55.775 56.9654 55.775 56.6804C55.775 56.5621 55.82 56.4288 55.9183 56.3204C56.2233 55.9838 56.77 55.6188 57.7067 55.6188C59.0617 55.6188 59.8717 56.2871 59.8717 57.4454V60.2404C59.8717 60.5554 59.61 60.8204 59.2917 60.8204C58.975 60.8204 58.7133 60.5554 58.7133 60.2404C58.4167 60.7121 57.9367 60.8754 57.2833 60.8754C56.2117 60.8754 55.5033 60.2071 55.5033 59.2254C55.5033 58.2104 56.3217 57.6854 57.2717 57.6854H58.7017V57.4888C58.7017 56.9988 58.3417 56.6704 57.7067 56.6704C57.2283 56.6704 56.89 56.8871 56.6167 57.0854ZM58.7017 58.9104V58.6021H57.4233C56.9433 58.6021 56.6833 58.8321 56.6833 59.2254C56.6833 59.6404 56.9767 59.8938 57.5883 59.8938C58.1683 59.8938 58.7017 59.5204 58.7017 58.9104Z" fill="#30A9D4"/>
<path fill-rule="evenodd" clip-rule="evenodd" d="M22.8567 60.3169L21.4 58.8569H21.4033C22.0183 58.1702 22.395 57.2619 22.395 56.2702C22.395 54.1302 20.655 52.3936 18.515 52.3936C16.3783 52.3936 14.64 54.1302 14.64 56.2702C14.64 58.4102 16.3783 60.1486 18.515 60.1486C19.1767 60.1486 19.7933 59.9786 20.3383 59.6886L21.9117 61.2586C21.9732 61.3215 22.0467 61.3715 22.1279 61.4056C22.209 61.4397 22.2961 61.4573 22.3842 61.4573C22.4722 61.4573 22.5593 61.4397 22.6405 61.4056C22.7216 61.3715 22.7951 61.3215 22.8567 61.2586C23.1167 60.9986 23.1167 60.5752 22.8567 60.3169ZM15.73 56.2702C15.73 54.7336 16.98 53.4836 18.515 53.4836C19.0783 53.4836 19.6017 53.6519 20.0383 53.9386L18.4367 56.5086L17.7783 55.6386C17.7299 55.5747 17.6675 55.5228 17.5958 55.487C17.5241 55.4511 17.4451 55.4323 17.365 55.4319C17.2483 55.4319 17.1417 55.4702 17.0483 55.5369C16.8217 55.7102 16.775 56.0386 16.95 56.2636L18.0633 57.7352C18.1633 57.8669 18.315 57.9419 18.4783 57.9419H18.5C18.6717 57.9369 18.8283 57.8436 18.9167 57.6969L20.8017 54.6769C21.1167 55.1302 21.3033 55.6769 21.3033 56.2702C21.3033 57.8069 20.0533 59.0536 18.515 59.0536C16.98 59.0536 15.73 57.8069 15.73 56.2702Z" fill="#FF7A04"/>
</g>
<defs>
<clipPath id="clip0_27815_1498">
<rect width="75" height="75" fill="white"/>
</clipPath>
</defs>
</svg>
