<svg width="24" height="24" viewBox="0 0 24 24" fill="none" xmlns="http://www.w3.org/2000/svg">
<path d="M20.25 3C20.7 3 21 3.3 21 3.75V20.25C21 20.7 20.7 21 20.25 21H3.75C3.3 21 3 20.7 3 20.25V3.75C3 3.3 3.3 3 3.75 3H20.25ZM5.7002 9.75V18.375H8.40039V9.75H5.7002ZM15.1504 9.59961C13.8004 9.59961 12.9746 10.2752 12.5996 10.9502V9.75H10.0498V18.375H12.75V14.0996C12.75 12.9748 12.9004 11.9248 14.3252 11.9248C15.6749 11.9249 15.6748 13.1999 15.6748 14.1748V18.375H18.375V13.7246C18.3749 11.4724 17.8821 9.71311 15.3965 9.60547L15.1504 9.59961ZM6.97461 5.40039C6.07495 5.40061 5.4006 6.14988 5.40039 6.97461C5.40039 7.87447 6.14976 8.54959 6.97461 8.5498C7.87461 8.5498 8.5498 7.87461 8.5498 6.97461C8.54959 6.0748 7.79949 5.40039 6.97461 5.40039Z" fill="white"/>
</svg>
