<svg width="166" height="32" fill="none" xmlns="http://www.w3.org/2000/svg"><g clip-path="url(#clip0_1685_2148)"><path d="M157.294 25.3411C155.498 25.3411 153.953 24.9775 152.657 24.2502C151.369 23.5153 150.377 22.4775 149.68 21.1365C148.983 19.7881 148.635 18.1934 148.635 16.3524C148.635 14.557 148.983 12.9812 149.68 11.6252C150.377 10.2691 151.358 9.2123 152.623 8.45472C153.896 7.69715 155.388 7.31836 157.1 7.31836C158.252 7.31836 159.324 7.50397 160.316 7.87518C161.316 8.23881 162.188 8.78806 162.93 9.5229C163.68 10.2578 164.263 11.182 164.68 12.2956C165.097 13.4017 165.305 14.6971 165.305 16.182V17.5115H150.566V14.5115H160.748C160.748 13.8146 160.597 13.1971 160.294 12.6593C159.991 12.1214 159.57 11.7009 159.032 11.3979C158.502 11.0873 157.885 10.932 157.18 10.932C156.445 10.932 155.794 11.1024 155.225 11.4434C154.665 11.7767 154.225 12.2274 153.907 12.7956C153.589 13.3562 153.426 13.9812 153.419 14.6706V17.5229C153.419 18.3865 153.578 19.1328 153.896 19.7615C154.222 20.3903 154.68 20.8752 155.271 21.2161C155.862 21.557 156.563 21.7274 157.373 21.7274C157.911 21.7274 158.403 21.6517 158.85 21.5002C159.297 21.3487 159.68 21.1214 159.998 20.8184C160.316 20.5153 160.559 20.1441 160.725 19.7047L165.203 20.0002C164.975 21.0759 164.51 22.0153 163.805 22.8184C163.108 23.6138 162.207 24.235 161.1 24.682C160.002 25.1214 158.733 25.3411 157.294 25.3411Z" fill="white"/><path d="M134.273 14.9093V25.0002H129.432V7.54563H134.046V10.6252H134.25C134.636 9.61003 135.284 8.80699 136.193 8.21609C137.102 7.6176 138.205 7.31836 139.5 7.31836C140.712 7.31836 141.769 7.58351 142.671 8.11381C143.572 8.64412 144.273 9.40169 144.773 10.3865C145.273 11.3638 145.523 12.5305 145.523 13.8865V25.0002H140.682V14.7502C140.689 13.682 140.417 12.8487 139.864 12.2502C139.311 11.6441 138.549 11.3411 137.58 11.3411C136.928 11.3411 136.352 11.4812 135.852 11.7615C135.36 12.0418 134.974 12.4509 134.693 12.9888C134.421 13.5191 134.28 14.1593 134.273 14.9093Z" fill="white"/><path d="M127 12.5C127 15.1537 126.514 17.4113 125.543 19.2728C124.58 21.1343 123.265 22.5562 121.597 23.5385C119.938 24.5128 118.072 25 116 25C113.912 25 112.039 24.5089 110.38 23.5266C108.72 22.5444 107.409 21.1225 106.445 19.2609C105.482 17.3994 105 15.1458 105 12.5C105 9.84632 105.482 7.58872 106.445 5.72719C107.409 3.86565 108.72 2.44772 110.38 1.47339C112.039 0.491128 113.912 0 116 0C118.072 0 119.938 0.491128 121.597 1.47339C123.265 2.44772 124.58 3.86565 125.543 5.72719C126.514 7.58872 127 9.84632 127 12.5ZM121.965 12.5C121.965 10.7811 121.716 9.33143 121.219 8.15114C120.73 6.97085 120.038 6.07573 119.143 5.46578C118.248 4.85583 117.201 4.55086 116 4.55086C114.799 4.55086 113.752 4.85583 112.857 5.46578C111.962 6.07573 111.267 6.97085 110.77 8.15114C110.28 9.33143 110.035 10.7811 110.035 12.5C110.035 14.2189 110.28 15.6686 110.77 16.8489C111.267 18.0292 111.962 18.9243 112.857 19.5342C113.752 20.1442 114.799 20.4491 116 20.4491C117.201 20.4491 118.248 20.1442 119.143 19.5342C120.038 18.9243 120.73 18.0292 121.219 16.8489C121.716 15.6686 121.965 14.2189 121.965 12.5Z" fill="white"/><path d="M89.9004 24.9995V7.54492H94.5936V10.5904H94.7754C95.0936 9.50704 95.6277 8.68886 96.3777 8.13583C97.1277 7.57523 97.9913 7.29492 98.9686 7.29492C99.211 7.29492 99.4724 7.31007 99.7527 7.34038C100.033 7.37068 100.279 7.41235 100.492 7.46538V11.7608C100.264 11.6926 99.9497 11.632 99.5482 11.579C99.1466 11.526 98.7792 11.4995 98.4459 11.4995C97.7338 11.4995 97.0974 11.6548 96.5368 11.9654C95.9838 12.2684 95.5444 12.6926 95.2186 13.2381C94.9004 13.7836 94.7413 14.4123 94.7413 15.1245V24.9995H89.9004Z" fill="white"/><path d="M78.7294 25.3411C76.934 25.3411 75.3885 24.9775 74.0931 24.2502C72.8052 23.5153 71.8128 22.4775 71.1158 21.1365C70.4188 19.7881 70.0703 18.1934 70.0703 16.3524C70.0703 14.557 70.4188 12.9812 71.1158 11.6252C71.8128 10.2691 72.7938 9.2123 74.059 8.45472C75.3317 7.69715 76.8241 7.31836 78.5363 7.31836C79.6878 7.31836 80.7597 7.50397 81.7522 7.87518C82.7522 8.23881 83.6234 8.78806 84.3658 9.5229C85.1158 10.2578 85.6991 11.182 86.1158 12.2956C86.5325 13.4017 86.7408 14.6971 86.7408 16.182V17.5115H72.0022V14.5115H82.184C82.184 13.8146 82.0325 13.1971 81.7294 12.6593C81.4264 12.1214 81.006 11.7009 80.4681 11.3979C79.9378 11.0873 79.3203 10.932 78.6158 10.932C77.881 10.932 77.2294 11.1024 76.6613 11.4434C76.1007 11.7767 75.6613 12.2274 75.3431 12.7956C75.0249 13.3562 74.862 13.9812 74.8544 14.6706V17.5229C74.8544 18.3865 75.0135 19.1328 75.3317 19.7615C75.6575 20.3903 76.1158 20.8752 76.7067 21.2161C77.2976 21.557 77.9984 21.7274 78.809 21.7274C79.3469 21.7274 79.8393 21.6517 80.2863 21.5002C80.7332 21.3487 81.1158 21.1214 81.434 20.8184C81.7522 20.5153 81.9946 20.1441 82.1613 19.7047L86.6385 20.0002C86.4113 21.0759 85.9453 22.0153 85.2408 22.8184C84.5438 23.6138 83.6423 24.235 82.5363 24.682C81.4378 25.1214 80.1688 25.3411 78.7294 25.3411Z" fill="white"/><path d="M50.5254 31.5456V7.54563H55.2982V10.4774H55.5141C55.7262 10.0078 56.033 9.53048 56.4345 9.04563C56.8436 8.55321 57.3739 8.14412 58.0254 7.81836C58.6845 7.48503 59.5027 7.31836 60.48 7.31836C61.7527 7.31836 62.9269 7.65169 64.0027 8.31836C65.0785 8.97745 65.9383 9.97366 66.5822 11.307C67.2262 12.6328 67.5482 14.2956 67.5482 16.2956C67.5482 18.2426 67.2338 19.8865 66.605 21.2274C65.9838 22.5608 65.1353 23.5721 64.0595 24.2615C62.9913 24.9434 61.7944 25.2843 60.4686 25.2843C59.5292 25.2843 58.73 25.129 58.0709 24.8184C57.4194 24.5078 56.8853 24.1176 56.4686 23.6479C56.0519 23.1706 55.7338 22.6896 55.5141 22.2047H55.3663V31.5456H50.5254ZM55.2641 16.2729C55.2641 17.3108 55.408 18.2161 55.6959 18.9888C55.9838 19.7615 56.4004 20.3638 56.9459 20.7956C57.4913 21.2199 58.1542 21.432 58.9345 21.432C59.7224 21.432 60.3891 21.2161 60.9345 20.7843C61.48 20.3449 61.8929 19.7388 62.1732 18.9661C62.461 18.1858 62.605 17.2881 62.605 16.2729C62.605 15.2653 62.4648 14.379 62.1845 13.6138C61.9042 12.8487 61.4913 12.2502 60.9459 11.8184C60.4004 11.3865 59.73 11.1706 58.9345 11.1706C58.1466 11.1706 57.48 11.379 56.9345 11.7956C56.3966 12.2123 55.9838 12.8032 55.6959 13.5684C55.408 14.3335 55.2641 15.235 55.2641 16.2729Z" fill="white"/><path d="M41.8068 25.0007V7.54617H46.6477V25.0007H41.8068ZM44.2386 5.29617C43.5189 5.29617 42.9015 5.05753 42.3864 4.58026C41.8788 4.09541 41.625 3.51586 41.625 2.84162C41.625 2.17495 41.8788 1.60298 42.3864 1.12571C42.9015 0.640862 43.5189 0.398438 44.2386 0.398438C44.9583 0.398438 45.572 0.640862 46.0795 1.12571C46.5947 1.60298 46.8523 2.17495 46.8523 2.84162C46.8523 3.51586 46.5947 4.09541 46.0795 4.58026C45.572 5.05753 44.9583 5.29617 44.2386 5.29617Z" fill="white"/><path d="M26.7413 14.9093V25.0002H21.9004V7.54563H26.5141V10.6252H26.7186C27.105 9.61003 27.7527 8.80699 28.6618 8.21609C29.5709 7.6176 30.6732 7.31836 31.9686 7.31836C33.1807 7.31836 34.2376 7.58351 35.1391 8.11381C36.0406 8.64412 36.7413 9.40169 37.2413 10.3865C37.7413 11.3638 37.9913 12.5305 37.9913 13.8865V25.0002H33.1504V14.7502C33.158 13.682 32.8853 12.8487 32.3323 12.2502C31.7792 11.6441 31.0179 11.3411 30.0482 11.3411C29.3966 11.3411 28.8209 11.4812 28.3209 11.7615C27.8285 12.0418 27.4421 12.4509 27.1618 12.9888C26.8891 13.5191 26.7489 14.1593 26.7413 14.9093Z" fill="white"/><path d="M13.8043 7.32779C13.7105 6.36975 13.3078 5.62549 12.5963 5.09501C11.8848 4.56453 10.9191 4.29929 9.69938 4.29929C8.87058 4.29929 8.17078 4.41805 7.6 4.65558C7.02922 4.88519 6.59136 5.20586 6.28642 5.61758C5.9893 6.0293 5.84074 6.49644 5.84074 7.019C5.8251 7.45447 5.91502 7.83452 6.11049 8.15915C6.31379 8.48377 6.59136 8.76485 6.94321 9.00238C7.29506 9.23199 7.70165 9.43389 8.16296 9.60808C8.62428 9.77435 9.11687 9.91687 9.64074 10.0356L11.7988 10.5582C12.8465 10.7957 13.8082 11.1124 14.684 11.5083C15.5597 11.9042 16.3181 12.3911 16.9593 12.9691C17.6004 13.5471 18.0969 14.228 18.4488 15.0119C18.8084 15.7957 18.9922 16.6944 19 17.7078C18.9922 19.1964 18.6169 20.4869 17.8741 21.5796C17.1391 22.6643 16.0757 23.5075 14.684 24.1093C13.3 24.7031 11.6307 25 9.67593 25C7.73683 25 6.04794 24.6991 4.60926 24.0974C3.17839 23.4956 2.06029 22.6049 1.25494 21.4252C0.457408 20.2375 0.0390947 18.7688 0 17.019H4.9142C4.96893 17.8345 5.19959 18.5154 5.60617 19.0618C6.02058 19.6002 6.57181 20.0079 7.25988 20.285C7.95576 20.5542 8.74156 20.6888 9.61728 20.6888C10.4774 20.6888 11.2241 20.5622 11.8574 20.3088C12.4986 20.0554 12.9951 19.7031 13.3469 19.2518C13.6988 18.8005 13.8747 18.2819 13.8747 17.696C13.8747 17.1496 13.7144 16.6904 13.3938 16.3183C13.0811 15.9462 12.6198 15.6295 12.0099 15.3682C11.4078 15.1069 10.6689 14.8694 9.79321 14.6556L7.17778 13.9905C5.15268 13.4917 3.5537 12.7118 2.38086 11.6508C1.20802 10.5899 0.625514 9.16073 0.633333 7.36342C0.625514 5.89074 1.01255 4.60412 1.79444 3.50356C2.58416 2.40301 3.66708 1.54394 5.04321 0.926366C6.41934 0.308789 7.98313 0 9.73457 0C11.5173 0 13.0733 0.308789 14.4025 0.926366C15.7395 1.54394 16.7794 2.40301 17.5222 3.50356C18.265 4.60412 18.6481 5.87886 18.6716 7.32779H13.8043Z" fill="white"/></g><defs><clipPath id="clip0_1685_2148"><rect width="166" height="32" fill="white"/></clipPath></defs></svg>