<svg width="159" height="31" fill="none" xmlns="http://www.w3.org/2000/svg"><path d="M149.744 30.4674C147.816 30.4674 146.132 30.0817 144.692 29.3104C143.252 28.5391 142.134 27.4721 141.336 26.1094C140.565 24.721 140.179 23.0884 140.179 21.2115C140.179 19.3089 140.565 17.6762 141.336 16.3136C142.134 14.9252 143.252 13.8582 144.692 13.1126C146.132 12.3412 147.829 11.9556 149.783 11.9556C151.737 11.9556 153.395 12.3155 154.758 13.0354C156.146 13.7296 157.2 14.7581 157.92 16.1207C158.64 17.4577 159 19.0775 159 20.9801C159 21.2115 158.987 21.4557 158.961 21.7128C158.961 21.97 158.949 22.1756 158.923 22.3299H143.033V19.2446H154.565L153.215 21.0187C153.318 20.8644 153.408 20.6587 153.485 20.4016C153.588 20.1188 153.639 19.8874 153.639 19.7074C153.639 18.8332 153.472 18.0876 153.138 17.4706C152.829 16.8535 152.379 16.365 151.788 16.005C151.197 15.6451 150.502 15.4651 149.705 15.4651C148.728 15.4651 147.906 15.6836 147.237 16.1207C146.594 16.5321 146.093 17.162 145.733 18.0105C145.399 18.8332 145.219 19.8617 145.193 21.0958C145.193 22.2785 145.36 23.2812 145.695 24.104C146.054 24.9267 146.582 25.5566 147.276 25.9937C147.97 26.4308 148.806 26.6493 149.783 26.6493C150.888 26.6493 151.827 26.4437 152.598 26.0323C153.395 25.5952 154.051 24.9524 154.565 24.104L158.923 25.4538C157.997 27.125 156.763 28.3848 155.22 29.2333C153.704 30.056 151.878 30.4674 149.744 30.4674Z" fill="white"/><path d="M131.811 12.3412V30.0817H126.913V12.3412H131.811ZM137.017 17.5477C136.683 17.2391 136.336 17.0077 135.976 16.8535C135.641 16.6735 135.217 16.5835 134.703 16.5835C134.086 16.5835 133.559 16.7506 133.122 17.0849C132.685 17.4191 132.35 17.8948 132.119 18.5118C131.913 19.1032 131.811 19.8231 131.811 20.6715L130.422 19.2832C130.422 17.8691 130.692 16.6221 131.232 15.5422C131.772 14.4367 132.479 13.5625 133.353 12.9197C134.227 12.2512 135.127 11.917 136.053 11.917C136.696 11.917 137.3 12.0327 137.865 12.2641C138.457 12.4955 138.932 12.8426 139.292 13.3054L137.017 17.5477Z" fill="white"/><path d="M110.537 23.1404C110.537 24.2974 110.769 25.1972 111.232 25.84C111.694 26.4571 112.44 26.7656 113.468 26.7656C114.188 26.7656 114.805 26.6242 115.32 26.3414C115.86 26.0328 116.271 25.6086 116.554 25.0687C116.862 24.5288 117.017 23.886 117.017 23.1404V12.3418H121.992V30.0823H117.017V27.3827C116.451 28.3854 115.731 29.1567 114.857 29.6966C113.983 30.2109 112.916 30.468 111.656 30.468C109.548 30.468 107.966 29.8638 106.912 28.6554C105.884 27.4469 105.369 25.7886 105.369 23.6803V12.3418H110.537V23.1404Z" fill="white"/><path d="M83.4983 3.08496H89.0133V30.0814H83.4983V3.08496ZM86.8536 7.75149V3.08496H92.2143C94.3484 3.08496 96.161 3.43206 97.6522 4.12625C99.1692 4.82045 100.326 5.81032 101.123 7.09586C101.92 8.3814 102.319 9.9112 102.319 11.6853C102.319 13.4336 101.92 14.9634 101.123 16.2746C100.326 17.5602 99.1692 18.5501 97.6522 19.2443C96.161 19.9384 94.3484 20.2855 92.2143 20.2855H86.8536V15.619H92.2143C93.6799 15.619 94.8369 15.2848 95.6853 14.6163C96.5338 13.9478 96.958 12.9708 96.958 11.6853C96.958 10.374 96.5338 9.39699 95.6853 8.75421C94.8369 8.08573 93.6799 7.75149 92.2143 7.75149H86.8536Z" fill="white"/><path d="M73.0925 0H78.1062V30.0817H73.0925V0Z" fill="white"/><path d="M60.069 30.4674C58.1407 30.4674 56.4566 30.0817 55.0168 29.3104C53.577 28.5391 52.4585 27.4721 51.6615 26.1094C50.8902 24.721 50.5045 23.0884 50.5045 21.2115C50.5045 19.3089 50.8902 17.6762 51.6615 16.3136C52.4585 14.9252 53.577 13.8582 55.0168 13.1126C56.4566 12.3412 58.1536 11.9556 60.1076 11.9556C62.0616 11.9556 63.72 12.3155 65.0827 13.0354C66.4711 13.7296 67.5252 14.7581 68.2452 16.1207C68.9651 17.4577 69.325 19.0775 69.325 20.9801C69.325 21.2115 69.3122 21.4557 69.2865 21.7128C69.2865 21.97 69.2736 22.1756 69.2479 22.3299H53.3584V19.2446H64.8899L63.54 21.0187C63.6429 20.8644 63.7329 20.6587 63.81 20.4016C63.9128 20.1188 63.9643 19.8874 63.9643 19.7074C63.9643 18.8332 63.7971 18.0876 63.4629 17.4706C63.1544 16.8535 62.7044 16.365 62.1131 16.005C61.5217 15.6451 60.8275 15.4651 60.0305 15.4651C59.0534 15.4651 58.2307 15.6836 57.5622 16.1207C56.9194 16.5321 56.4181 17.162 56.0581 18.0105C55.7239 18.8332 55.5439 19.8617 55.5182 21.0958C55.5182 22.2785 55.6853 23.2812 56.0195 24.104C56.3795 24.9267 56.9066 25.5566 57.6008 25.9937C58.295 26.4308 59.1306 26.6493 60.1076 26.6493C61.2132 26.6493 62.1516 26.4437 62.923 26.0323C63.72 25.5952 64.3756 24.9524 64.8899 24.104L69.2479 25.4538C68.3223 27.125 67.0882 28.3848 65.5455 29.2333C64.0285 30.056 62.2031 30.4674 60.069 30.4674Z" fill="white"/><path d="M43.8934 12.3418H49.4084L42.8521 20.9421L49.7941 30.0823H44.279L40.2681 24.4516L36.3343 30.0823H30.6264L37.6456 20.9421L31.0121 12.3418H36.72L40.2681 17.4711L43.8934 12.3418Z" fill="white"/><path d="M22.3931 5.47648C22.3931 4.65373 22.6887 3.98524 23.2801 3.47102C23.8714 2.9311 24.5785 2.66113 25.4012 2.66113C26.224 2.66113 26.9182 2.9311 27.4838 3.47102C28.0752 3.98524 28.3709 4.65373 28.3709 5.47648C28.3709 6.27351 28.0752 6.94199 27.4838 7.48192C26.9182 8.02185 26.224 8.29182 25.4012 8.29182C24.5785 8.29182 23.8714 8.02185 23.2801 7.48192C22.6887 6.94199 22.3931 6.27351 22.3931 5.47648ZM22.933 12.3413H27.7924V30.0818H22.933V12.3413Z" fill="white"/><path d="M0 3.08496H5.51503V30.0814H0V3.08496ZM3.3553 7.75149V3.08496H8.71606C10.8501 3.08496 12.6627 3.43206 14.154 4.12625C15.6709 4.82045 16.8279 5.81032 17.625 7.09586C18.422 8.3814 18.8205 9.9112 18.8205 11.6853C18.8205 13.4336 18.422 14.9634 17.625 16.2746C16.8279 17.5602 15.6709 18.5501 14.154 19.2443C12.6627 19.9384 10.8501 20.2855 8.71606 20.2855H3.3553V15.619H8.71606C10.1816 15.619 11.3386 15.2848 12.1871 14.6163C13.0355 13.9478 13.4598 12.9708 13.4598 11.6853C13.4598 10.374 13.0355 9.39699 12.1871 8.75421C11.3386 8.08573 10.1816 7.75149 8.71606 7.75149H3.3553Z" fill="white"/></svg>