<svg width="16" height="16" viewBox="0 0 16 16" fill="none" xmlns="http://www.w3.org/2000/svg">
<path d="M3.3335 11.3333C3.3335 11.6869 3.47397 12.0261 3.72402 12.2761C3.97407 12.5262 4.31321 12.6666 4.66683 12.6666C5.02045 12.6666 5.35959 12.5262 5.60964 12.2761C5.85969 12.0261 6.00016 11.6869 6.00016 11.3333M3.3335 11.3333C3.3335 10.9797 3.47397 10.6406 3.72402 10.3905C3.97407 10.1405 4.31321 9.99998 4.66683 9.99998C5.02045 9.99998 5.35959 10.1405 5.60964 10.3905C5.85969 10.6406 6.00016 10.9797 6.00016 11.3333M3.3335 11.3333H2.00016V8.66665M6.00016 11.3333H10.0002M10.0002 11.3333C10.0002 11.6869 10.1406 12.0261 10.3907 12.2761C10.6407 12.5262 10.9799 12.6666 11.3335 12.6666C11.6871 12.6666 12.0263 12.5262 12.2763 12.2761C12.5264 12.0261 12.6668 11.6869 12.6668 11.3333M10.0002 11.3333C10.0002 10.9797 10.1406 10.6406 10.3907 10.3905C10.6407 10.1405 10.9799 9.99998 11.3335 9.99998C11.6871 9.99998 12.0263 10.1405 12.2763 10.3905C12.5264 10.6406 12.6668 10.9797 12.6668 11.3333M12.6668 11.3333H14.0002V7.33331M1.3335 3.33331H8.66683V11.3333M14.0002 7.33331H8.66683M14.0002 7.33331L12.0002 3.99998H8.66683M2.00016 5.99998H4.66683" stroke="black" stroke-width="1.25" stroke-linecap="round" stroke-linejoin="round"/>
</svg>
