<svg width="14" height="14" fill="none" xmlns="http://www.w3.org/2000/svg"><path d="M1.08698 4.82072L4.80865 4.28113L6.4729 0.909467C6.52104 0.811778 6.59556 0.729517 6.68804 0.671994C6.78051 0.614471 6.88724 0.583984 6.99615 0.583984C7.10505 0.583984 7.21178 0.614471 7.30426 0.671994C7.39673 0.729517 7.47126 0.811778 7.5194 0.909467L6.99965 11.0128L3.67115 12.7628C3.57966 12.8109 3.47702 12.8339 3.37373 12.8294C3.27045 12.8248 3.17023 12.7929 3.08334 12.7368C2.99645 12.6808 2.92602 12.6027 2.87924 12.5105C2.83247 12.4183 2.81104 12.3153 2.81715 12.2121L2.82473 12.148L3.46056 8.44088L0.764396 5.81647C0.690323 5.74455 0.636663 5.65426 0.608896 5.55483C0.581129 5.45539 0.58025 5.35036 0.606349 5.25047C0.632448 5.15059 0.68459 5.05941 0.75745 4.98627C0.83031 4.91312 0.921278 4.86062 1.02106 4.83413L1.08698 4.82072Z" fill="#E58200"/><path d="M12.9125 4.81681L9.19087 4.27723L7.52662 0.90556C7.47848 0.807872 7.40395 0.725611 7.31148 0.668088C7.219 0.610565 7.11227 0.580078 7.00337 0.580078L6.99987 11.0089L10.3284 12.7589C10.4199 12.807 10.5225 12.83 10.6258 12.8255C10.7291 12.8209 10.8293 12.789 10.9162 12.7329C11.0031 12.6769 11.0735 12.5988 11.1203 12.5066C11.167 12.4144 11.1885 12.3114 11.1824 12.2082L11.1748 12.1441L10.5389 8.43698L13.2351 5.81256C13.3092 5.74064 13.3628 5.65036 13.3906 5.55092C13.4184 5.45148 13.4193 5.34646 13.3932 5.24657C13.3671 5.14668 13.3149 5.05551 13.2421 4.98236C13.1692 4.90922 13.0782 4.85672 12.9784 4.83023L12.9125 4.81681Z" fill="#ADADAD"/></svg>