<svg width="32" height="32" viewBox="0 0 32 32" fill="none" xmlns="http://www.w3.org/2000/svg">
<path d="M16 10.6666V28M16 10.6666C15.5177 8.67918 14.6873 6.98005 13.617 5.79085C12.5467 4.60165 11.2862 3.97756 10 3.99997C9.11595 3.99997 8.2681 4.35116 7.64298 4.97628C7.01786 5.6014 6.66667 6.44925 6.66667 7.33331C6.66667 8.21736 7.01786 9.06521 7.64298 9.69033C8.2681 10.3154 9.11595 10.6666 10 10.6666M16 10.6666C16.4823 8.67918 17.3127 6.98005 18.383 5.79085C19.4533 4.60165 20.7138 3.97756 22 3.99997C22.8841 3.99997 23.7319 4.35116 24.357 4.97628C24.9821 5.6014 25.3333 6.44925 25.3333 7.33331C25.3333 8.21736 24.9821 9.06521 24.357 9.69033C23.7319 10.3154 22.8841 10.6666 22 10.6666M25.3333 16V25.3333C25.3333 26.0406 25.0524 26.7188 24.5523 27.2189C24.0522 27.719 23.3739 28 22.6667 28H9.33333C8.62609 28 7.94781 27.719 7.44772 27.2189C6.94762 26.7188 6.66667 26.0406 6.66667 25.3333V16M4 12C4 11.6464 4.14048 11.3072 4.39052 11.0572C4.64057 10.8071 4.97971 10.6666 5.33333 10.6666H26.6667C27.0203 10.6666 27.3594 10.8071 27.6095 11.0572C27.8595 11.3072 28 11.6464 28 12V14.6666C28 15.0203 27.8595 15.3594 27.6095 15.6095C27.3594 15.8595 27.0203 16 26.6667 16H5.33333C4.97971 16 4.64057 15.8595 4.39052 15.6095C4.14048 15.3594 4 15.0203 4 14.6666V12Z" stroke="#142D59" stroke-width="1.5" stroke-linecap="round" stroke-linejoin="round"/>
</svg>
